<svg width="36" height="36" viewBox="0 0 36 36" fill="none" xmlns="http://www.w3.org/2000/svg">
<g id="more">
<g id="&#231;&#188;&#150;&#231;&#187;&#132;">
<path id="&#229;&#189;&#162;&#231;&#138;&#182;" fill-rule="evenodd" clip-rule="evenodd" d="M18 0C27.9411 0 36 8.05887 36 18C36 27.9411 27.9411 36 18 36C8.05887 36 0 27.9411 0 18C0 8.05887 8.05887 0 18 0ZM4.59675 14.3955C4.51313 14.4791 4.4715 14.5207 4.47188 14.562C4.47225 14.6029 4.51387 14.6434 4.59675 14.724C4.1535 15.4418 3.20175 15.5295 2.52 15.0975C1.73474 19.2903 2.68323 23.6223 5.14867 27.1033C7.61411 30.5844 11.3858 32.9169 15.6015 33.5677L15.588 33.5565L15.318 33.4215C15.8242 33.2595 16.4948 33.2595 16.9942 33.2595C16.8277 32.274 16.8277 31.4572 16.8277 30.4695C16.8277 30.4695 12.9757 27.684 12.9757 26.0415C12.9757 25.3468 13.0655 24.7999 13.1311 24.3999C13.2207 23.8542 13.2653 23.5823 12.9757 23.5823C12.6742 23.5823 12.3512 23.6671 12.0533 23.7453C11.5221 23.8847 11.0709 24.0032 10.9643 23.5823C10.629 22.5968 9.9585 21.7778 8.95275 21.4515C6.6465 21.4515 6.31575 18.9675 6.27525 16.407L6.273 15.7095C6.273 15.1632 5.83035 14.9793 5.33659 14.7742C5.08609 14.6701 4.82243 14.5606 4.59675 14.3955ZM19.1453 2.331L18.9517 2.27925L18.954 2.277C24.8898 2.63706 30.1167 6.30966 32.4675 11.772C31.3245 10.476 29.5245 12.204 30.2512 14.0535C25.5577 17.5005 26.8988 19.9643 28.4085 21.276C29.2455 22.095 29.916 22.9185 30.42 23.9018C29.9835 25.047 31.455 24.9435 32.7285 23.5913C30.8588 28.5038 26.6647 32.1621 21.5438 33.3472C21.276 33.0705 20.952 32.841 20.6775 32.931C21.1792 30.6337 21.5145 29.4862 22.518 28.503C23.1885 28.0125 23.5238 27.189 23.0197 26.532C22.6845 26.0415 22.014 25.713 21.5122 25.875C20.9793 25.9622 20.9185 25.6337 20.8533 25.2812C20.7957 24.97 20.7347 24.6401 20.3423 24.561C19.9175 24.4799 19.4059 24.0177 18.8521 23.5173C18.3145 23.0315 17.7371 22.5098 17.1607 22.266C16.9487 22.1621 16.7367 22.0092 16.5141 21.8487C16.0327 21.5015 15.5017 21.1185 14.814 21.1185C14.4925 21.1185 14.0967 21.2393 13.7311 21.3509C13.1447 21.5299 12.636 21.6852 12.636 21.2805C12.636 20.0326 12.57 19.0478 12.5217 18.3266C12.4938 17.91 12.4717 17.5813 12.4717 17.3407C12.4717 17.1559 12.4241 17.0874 12.4366 17.0737C12.4572 17.0512 12.6419 17.1787 13.4775 17.1787C13.8113 17.1787 13.8953 16.8514 13.9793 16.5237C14.0635 16.1955 14.1477 15.867 14.4832 15.867C14.7464 15.867 15.1381 15.9682 15.5372 16.0713C16.155 16.2309 16.7906 16.3951 16.9942 16.1955C17.0886 16.1493 17.3424 16.5973 17.6584 17.1551C18.4648 18.5788 19.6763 20.7175 19.6763 17.1787C19.6763 16.9663 19.6407 16.7191 19.6043 16.4653C19.5283 15.9367 19.4482 15.3794 19.6763 15.048C20.5562 13.6812 21.3404 12.2551 22.023 10.7798C21.3525 10.6178 20.5155 10.6178 19.8472 10.7798C19.6922 10.8542 19.7143 10.9988 19.7348 11.1335C19.759 11.2921 19.781 11.4368 19.5098 11.4368C17.8335 11.7653 16.3282 10.9462 16.8277 10.125C17.026 9.80137 17.46 9.68221 17.9229 9.55513C18.6314 9.36059 19.4077 9.14747 19.5098 8.154C19.6763 7.1685 19.6763 6.18525 19.6763 5.3685C21.771 5.6835 21.6968 3.1095 19.1453 2.331Z" fill="black"/>
</g>
</g>
</svg>
