<svg width="750" height="559" viewBox="0 0 750 559" fill="none" xmlns="http://www.w3.org/2000/svg">
<rect width="750" height="559" fill="url(#paint0_linear_4_44604)"/>
<mask id="mask0_4_44604" style="mask-type:luminance" maskUnits="userSpaceOnUse" x="0" y="0" width="750" height="559">
<rect width="750" height="559" fill="white"/>
</mask>
<g mask="url(#mask0_4_44604)">
<path fill-rule="evenodd" clip-rule="evenodd" d="M183.999 64C266.778 64 337.159 117.042 363.296 191.059C363.876 192.709 363.183 193.728 361.378 193.596C342.857 192.226 323.68 194.788 307.687 199.193C307.106 199.353 306.54 199.114 306.205 198.388C284.938 152.313 237.767 119.799 183.999 119.799C119.438 119.799 65.1485 165.531 52.2829 227.101C52.267 227.097 52.251 227.093 52.2351 227.09C71.106 231.725 88.5292 240.414 104.706 252.553C120.249 264.157 146.074 287.255 164.29 303.765C164.937 304.349 164.975 305.212 164.32 305.847L126.443 342.902C125.802 343.426 125.145 343.384 124.598 342.889C113.863 333.184 89.3936 311.618 78.3726 302.459C55.2866 283.271 34.8545 278.89 19.8004 278.952C-4.22282 279.177 -26.0726 289.012 -41.6903 304.889C-75.1013 339.126 -74.3113 393.842 -40.3559 427.532C-29.4566 438.345 -10.0194 450.621 21.8864 451.709C33.2148 452.094 45.9801 452.216 54.8746 452.252L-0.136383 505.77C-29.3029 501.688 -56.6525 489.594 -79.2283 467.365C-135.458 412.004 -136.304 322.154 -81.4231 265.918C-60.9742 245.012 -34.0964 230.278 -3.89413 225.182C10.362 134 89.0477 64 183.999 64ZM14.8273 223.301C16.4107 223.248 18.0009 223.221 19.5976 223.221C20.7646 223.22 21.9265 223.232 23.0834 223.259C21.9267 223.232 20.7648 223.219 19.5978 223.22C18.0009 223.22 16.4106 223.247 14.8273 223.301ZM449.421 265.917C423.803 239.728 388.097 223.225 348.403 223.223C314.089 223.218 284.548 235.081 258.757 256.137C247.512 265.316 235.718 276.305 220.882 290.754C213.512 297.929 -0.14386 505.777 -0.14386 505.777C11.0565 507.376 26.4606 507.854 40.1952 507.941C51.9794 508.014 258.85 508 301.501 507.998L308.822 507.997C329.503 507.997 342.965 507.974 357.423 506.914C390.582 504.489 421.907 492.296 447.229 467.368C503.459 412.006 504.304 322.153 449.421 265.917ZM408.354 427.531C397.457 438.342 378.02 450.623 346.112 451.708C331.357 452.213 314.127 452.267 306.242 452.267H134.796L175.877 412.264L177.773 410.418C220.513 368.799 253.069 337.097 257.76 332.532C263.416 327.023 276.134 314.824 287.104 304.922C311.185 283.181 332.868 278.805 348.198 278.949C372.223 279.176 394.073 289.014 409.691 304.892C443.099 339.127 442.309 393.841 408.354 427.531Z" fill="url(#paint1_linear_4_44604)"/>
</g>
<defs>
<linearGradient id="paint0_linear_4_44604" x1="-65.1444" y1="-61.1355" x2="-65.1444" y2="594.973" gradientUnits="userSpaceOnUse">
<stop stop-color="#ADD9FF"/>
<stop offset="0.999629" stop-color="#388EFF"/>
</linearGradient>
<linearGradient id="paint1_linear_4_44604" x1="-81.6125" y1="163.236" x2="20.2899" y2="633.674" gradientUnits="userSpaceOnUse">
<stop stop-color="white" stop-opacity="0.1"/>
<stop offset="1" stop-color="white" stop-opacity="0.04"/>
</linearGradient>
</defs>
</svg>
