<svg width="31" height="33" viewBox="0 0 31 33" fill="none" xmlns="http://www.w3.org/2000/svg">
<path fill-rule="evenodd" clip-rule="evenodd" d="M18.8691 2C18.8691 0.89543 17.9737 0 16.8691 0H13.3691C12.2646 0 11.3691 0.89543 11.3691 2V8H3.36914C2.26457 8 1.36914 8.89543 1.36914 10V15C1.36914 16.1046 2.26457 17 3.36914 17H27.3691C28.4737 17 29.3691 16.1046 29.3691 15V10C29.3691 8.89543 28.4737 8 27.3691 8H18.8691V2ZM13.3691 2H16.8691V10H27.3691V15H3.36914V10H13.3691V2Z" fill="black"/>
<path d="M26.3692 15L30.665 30.4647C30.7134 30.639 30.7379 30.8191 30.7379 31C30.7379 32.0544 29.9221 32.9182 28.8872 32.9945L28.7379 33H25.1161C24.6731 33 24.283 32.7086 24.1572 32.2838L22.5862 26.9762C22.4594 26.4058 21.9535 26 21.3692 26C20.9262 26 20.5671 26.3591 20.5671 26.8022C20.5671 26.8607 20.5735 26.9191 20.5862 26.9762L21.9892 31.7162C22.1789 32.357 21.6987 33 21.0303 33H17.5854C17.052 33 16.6125 32.5814 16.5866 32.0486L16.3409 26.9993C16.3205 26.4416 15.8625 26 15.3044 26C14.7455 26 14.2859 26.4406 14.2623 26.9991L13.9781 32.0561C13.9484 32.5858 13.5102 33 12.9797 33H9.70812C9.03979 33 8.55955 32.357 8.74924 31.7162L10.1523 26.9762C10.165 26.9191 10.1714 26.8607 10.1714 26.8022C10.1714 26.3591 9.81225 26 9.36922 26C8.82667 26 8.35171 26.3499 8.18515 26.8566L8.15229 26.9762L6.58121 32.2838C6.45549 32.7086 6.06531 33 5.62234 33H2.00051C1.8196 33 1.63953 32.9755 1.46522 32.927C0.449323 32.6448 -0.164602 31.6275 0.0388078 30.61L0.0734714 30.4647L4.36923 15H26.3692Z" fill="black"/>
</svg>
