<svg width="20" height="20" viewBox="0 0 20 20" fill="none" xmlns="http://www.w3.org/2000/svg">
<path d="M6.66667 9.11645L9.72199 11.9744L13.911 6.96178L12.8426 6.00014L9.53161 9.32083L7.58693 8.01214L6.66667 9.11645Z" fill="black"/>
<path fill-rule="evenodd" clip-rule="evenodd" d="M10 19.5C16.697 15.0145 18.75 8.76365 18.75 3.66656C17.9621 2.85103 14.5303 0.833313 10 0.833313C5.4697 0.833313 2.03788 2.85103 1.25 3.66656C1.25 8.76365 3.30303 15.0145 10 19.5ZM10 17.4585C4.89815 13.6387 3.12664 8.68696 2.9346 4.45691C3.33853 4.19236 3.97648 3.83567 4.83819 3.49253C6.19864 2.95078 7.97968 2.49998 10 2.49998C12.0203 2.49998 13.8014 2.95078 15.1618 3.49253C16.0235 3.83567 16.6615 4.19236 17.0654 4.45691C16.8734 8.68696 15.1019 13.6387 10 17.4585Z" fill="black"/>
</svg>
