<svg width="24" height="24" viewBox="0 0 24 24" fill="none" xmlns="http://www.w3.org/2000/svg">
<path fill-rule="evenodd" clip-rule="evenodd" d="M20.5998 5.95328C21.1521 5.95328 21.5998 6.401 21.5998 6.95328V19.4C21.5998 19.9523 21.1521 20.4 20.5998 20.4H11.6793C11.127 20.4 10.6793 19.9523 10.6793 19.4V17.1097H3.39983C2.84754 17.1097 2.39983 16.662 2.39983 16.1097V4.59998C2.39983 4.04769 2.84754 3.59998 3.39983 3.59998H11.44C11.9224 3.59998 12.336 3.94433 12.4234 4.41872L12.7062 5.95328H20.5998ZM3.89222 13.5797H8.16294V12.6885H4.78759V10.7644H7.84302V9.85581H4.78759V8.17145H8.03197V7.23449H3.89222V13.5797ZM10.7737 9.67499C10.1425 9.73164 9.80322 10.0868 9.74524 10.7362V13.5776H8.90785V8.91016H9.74739V9.48324C9.99217 9.04308 10.3701 8.81429 10.879 8.81429C11.8967 8.77506 12.397 9.37864 12.3584 10.6141V13.5797H11.4909V10.7078C11.4909 10.0193 11.2461 9.67499 10.7737 9.67499ZM19.97 18.6411C19.9834 18.5954 20.0041 18.5253 20.0041 18.4343V7.99587C20.0041 7.83463 19.9375 7.73875 19.9096 7.71914L13.2299 7.72786L14.7803 17.1075H12.3967V18.4343C12.3967 18.5955 12.4633 18.6914 12.4912 18.711L19.9654 18.7023C19.9531 18.6984 19.9593 18.6775 19.97 18.6411Z" fill="#383F54"/>
<path fill-rule="evenodd" clip-rule="evenodd" d="M19.2916 11.8356H18.0329C17.7975 12.8859 17.3359 13.7531 16.6506 14.4151C17.224 14.7612 18.0842 15.051 19.2217 15.2904L19.4665 15.3347L19.3546 15.5379C19.3243 15.6003 19.2823 15.6888 19.231 15.8035C19.2245 15.8137 19.2181 15.8235 19.212 15.833C19.1328 15.9558 19.0858 16.0286 19.0469 16.0772L18.9653 16.1999L18.8021 16.1556C17.4711 15.7572 16.5294 15.3689 15.935 14.9805C15.6996 15.1214 15.4245 15.2723 15.0865 15.4313L14.9024 14.5922C15.0236 14.5379 15.1261 14.4775 15.2287 14.4151C15.0562 14.2381 14.8907 14.0449 14.7485 13.8497V13.8417L14.2851 11.0307H15.5877C15.5811 11.02 15.5743 11.009 15.5673 10.9976C15.4874 10.8675 15.3787 10.6908 15.2287 10.4392L15.1471 10.2802L15.977 9.8999L16.0795 10.0327C16.2124 10.2098 16.3965 10.4935 16.632 10.908L16.7136 11.0307H19.2916V11.8356ZM17.0493 11.8356H14.7672C14.9724 12.5962 15.371 13.2763 15.9537 13.8498C16.5178 13.2944 16.8861 12.6224 17.0493 11.8356Z" fill="#383F54"/>
</svg>
